<svg xmlns="http://www.w3.org/2000/svg" width="40" height="40" viewBox="0 0 40 40"><defs><linearGradient id="a" x1="116.577%" x2="0%" y1="-57.803%" y2="125.059%"><stop offset="0%" stop-color="#4B3691"/><stop offset="63.064%" stop-color="#C12D63"/><stop offset="100%" stop-color="#D78444"/></linearGradient></defs><g fill="none"><path fill="url(#a)" d="M20 40c11.046 0 20-8.954 20-20s-8.954-20-20-20-20 8.954-20 20 8.954 20 20 20z"/><path fill="#FFF" d="M26.753 9h-13.5a4.257 4.257 0 0 0-4.253 4.251v13.499a4.257 4.257 0 0 0 4.252 4.25h13.498a4.257 4.257 0 0 0 4.25-4.25v-13.498a4.257 4.257 0 0 0-4.247-4.252zm1.22 2.536h.487v3.73l-3.717.01-.013-3.729 3.243-.011zm-11.107 6.206a3.866 3.866 0 1 1 6.267 4.525 3.866 3.866 0 0 1-6.267-4.524v-.001zm11.996 9.012a2.11 2.11 0 0 1-2.109 2.108h-13.5a2.109 2.109 0 0 1-2.108-2.108v-9.012h3.283a6.016 6.016 0 1 0 11.145 0h3.285v9.012h.004z"/></g></svg>