<svg xmlns="http://www.w3.org/2000/svg" width="40" height="40" viewBox="0 0 40 40"><g fill="none"><path fill="#E47829" d="M20 40c11.046 0 20-8.954 20-20s-8.954-20-20-20-20 8.954-20 20 8.954 20 20 20z"/><path fill="#FFF" d="M26.629 21.929a7.115 7.115 0 0 1-2.561 1.629 12.19 12.19 0 0 1-2.904.64l.314.332c1.343 1.33 2.69 2.65 4.033 3.99.438.393.56 1.023.3 1.548a1.592 1.592 0 0 1-1.492.916 1.453 1.453 0 0 1-.946-.476c-1.014-1.01-2.049-1.992-3.041-3.017-.29-.298-.428-.24-.684.018a211.712 211.712 0 0 1-3.1 3.068 1.315 1.315 0 0 1-1.57.277 1.564 1.564 0 0 1-.916-1.44c.03-.374.206-.72.491-.968 1.331-1.309 2.66-2.62 3.985-3.932l.298-.314a9.156 9.156 0 0 1-4.838-1.7 6.307 6.307 0 0 1-.513-.413 1.414 1.414 0 0 1-.226-1.882 1.463 1.463 0 0 1 1.868-.448c.14.067.274.145.401.234a8.03 8.03 0 0 0 8.803.082c.253-.202.544-.35.857-.436.593-.17 1.227.08 1.537.606.4.506.36 1.227-.096 1.686zm-6.688-2.287c-2.393-.014-4.54-1.45-5.44-3.635a5.76 5.76 0 0 1 1.34-6.341 5.973 5.973 0 0 1 6.459-1.197c2.2.927 3.616 3.07 3.585 5.428-.044 3.198-2.698 5.763-5.944 5.745zm.048-8.668a2.891 2.891 0 0 0-2.674 1.757 2.818 2.818 0 0 0 .627 3.106 2.922 2.922 0 0 0 3.152.615 2.848 2.848 0 0 0 1.781-2.636c0-.754-.303-1.478-.845-2.011a2.903 2.903 0 0 0-2.041-.83z"/></g></svg>