<svg xmlns="http://www.w3.org/2000/svg" width="40" height="40" viewBox="0 0 40 40"><g fill="none"><circle cx="20" cy="20" r="20" fill="#4D76A2"/><path fill="#FFF" d="M28.494 22.89c.858.77 1.675 1.584 2.447 2.437.337.383.631.801.876 1.248a.887.887 0 0 1 .107.846.901.901 0 0 1-.658.55h-3.636a2.83 2.83 0 0 1-2.319-.934c-.502-.507-.964-1.049-1.454-1.572a3.392 3.392 0 0 0-.655-.577.765.765 0 0 0-1.21.292 3.742 3.742 0 0 0-.384 1.681.948.948 0 0 1-.276.866.971.971 0 0 1-.884.245 9.411 9.411 0 0 1-5.205-1.108 11.438 11.438 0 0 1-3.503-3.247 43.649 43.649 0 0 1-4.613-8.137c-.29-.64-.078-.984.637-.998a100.1 100.1 0 0 1 3.562 0c.456.006.855.302.99.733a21.723 21.723 0 0 0 2.413 4.427c.242.382.551.718.912.993a.555.555 0 0 0 .943-.273c.119-.297.19-.61.21-.93.109-1.083.09-2.176-.059-3.255a1.37 1.37 0 0 0-1.168-1.242c-.347-.065-.298-.192-.128-.389a1.313 1.313 0 0 1 1.117-.545h4.111c.259.025.497.15.662.35a.963.963 0 0 1 .219.71v4.521c-.024.459.196.897.58 1.155.33.049.656-.11.82-.398a14.014 14.014 0 0 0 2.317-3.522c.275-.558.516-1.135.75-1.713a.886.886 0 0 1 .929-.631h3.958a2.08 2.08 0 0 1 .35.02.691.691 0 0 1 .648.324.676.676 0 0 1-.004.718 9.74 9.74 0 0 1-1.574 2.7c-.661.905-1.365 1.773-2.02 2.686a1.22 1.22 0 0 0 .193 1.97z"/></g></svg>