<svg xmlns="http://www.w3.org/2000/svg" width="40" height="40" viewBox="0 0 40 40"><g fill="none"><path fill="#D5352B" d="M20 40c11.046 0 20-8.954 20-20s-8.954-20-20-20-20 8.954-20 20 8.954 20 20 20z"/><path fill="#FFF" d="M30.619 15.193a1.516 1.516 0 0 0-.052-.227l-.033-.104c-.29-.79-1.091-1.32-1.994-1.322h.144a70.115 70.115 0 0 0-17.37 0h.144c-.902 0-1.704.532-1.993 1.322a1.691 1.691 0 0 0-.086.331 30.667 30.667 0 0 0 0 9.614 1.688 1.688 0 0 0 .086.33c.289.79 1.09 1.322 1.993 1.323h-.144c5.764.72 11.606.72 17.37 0h-.14c.903-.001 1.705-.533 1.994-1.322l.033-.104.052-.227a30.667 30.667 0 0 0-.004-9.614zm-6.86 5.71l-4.835 3.001a.652.652 0 0 1-.606.042c-.195-.086-.318-.258-.318-.445v-6.002c0-.188.122-.36.317-.445a.666.666 0 0 1 .607.041l4.836 3.001a.48.48 0 0 1 .24.403c0 .16-.09.31-.24.403z"/></g></svg>